<?xml version="1.0" encoding="UTF-8" standalone="no"?>
<svg
   xmlns:dc="http://purl.org/dc/elements/1.1/"
   xmlns:cc="http://creativecommons.org/ns#"
   xmlns:rdf="http://www.w3.org/1999/02/22-rdf-syntax-ns#"
   xmlns:svg="http://www.w3.org/2000/svg"
   xmlns="http://www.w3.org/2000/svg"
   xmlns:sodipodi="http://sodipodi.sourceforge.net/DTD/sodipodi-0.dtd"
   xmlns:inkscape="http://www.inkscape.org/namespaces/inkscape"
   width="1000"
   height="1000"
   viewBox="0 0 264.58333 264.58334"
   version="1.1"
   id="svg937"
   inkscape:version="1.0.1 (c497b03c, 2020-09-10)"
   sodipodi:docname="No Fingerprint.svg">
  <defs
     id="defs931" />
  <sodipodi:namedview
     id="base"
     pagecolor="#ffffff"
     bordercolor="#666666"
     borderopacity="1.0"
     inkscape:pageopacity="0.0"
     inkscape:pageshadow="2"
     inkscape:zoom="0.35"
     inkscape:cx="400"
     inkscape:cy="560"
     inkscape:document-units="mm"
     inkscape:current-layer="layer1"
     inkscape:document-rotation="0"
     showgrid="false"
     units="px"
     inkscape:window-width="1536"
     inkscape:window-height="834"
     inkscape:window-x="0"
     inkscape:window-y="23"
     inkscape:window-maximized="1" />
  <metadata
     id="metadata934">
    <rdf:RDF>
      <cc:Work
         rdf:about="">
        <dc:format>image/svg+xml</dc:format>
        <dc:type
           rdf:resource="http://purl.org/dc/dcmitype/StillImage" />
        <dc:title></dc:title>
      </cc:Work>
    </rdf:RDF>
  </metadata>
  <g
     inkscape:label="Layer 1"
     inkscape:groupmode="layer"
     id="layer1">
    <g
       id="g2151"
       transform="matrix(0.51676422,0,0,0.51676407,-2.3163521e-4,1.2919102e-4)">
      <path
         style="fill:#4596e6"
         d="m 256,512 c -0.913,0 -1.837,-0.076 -2.75,-0.228 C 129.088,491.076 38.957,384.685 38.957,258.805 V 16.696 c 0,-6.152 3.391,-11.815 8.815,-14.718 5.424,-2.903 12.011,-2.576 17.141,0.826 55.217,36.804 126.609,36.804 181.826,0 5.609,-3.739 12.914,-3.739 18.522,0 55.217,36.804 126.609,36.804 181.826,0 5.13,-3.403 11.728,-3.729 17.141,-0.826 5.425,2.903 8.816,8.566 8.816,14.718 v 242.109 c 0,125.881 -90.131,232.272 -214.293,252.967 C 257.837,511.925 256.913,512 256,512 Z"
         id="path2069" />
      <path
         style="fill:#3688d9"
         d="M 258.75,511.772 C 382.912,491.076 473.043,384.685 473.043,258.805 V 16.696 c 0,-6.152 -3.391,-11.815 -8.815,-14.718 -5.413,-2.902 -12.011,-2.576 -17.141,0.826 -55.217,36.804 -126.609,36.804 -181.826,0 C 262.457,0.935 259.228,0 256,0 v 512 c 0.913,0 1.837,-0.075 2.75,-0.228 z"
         id="path2071" />
      <path
         style="fill:#d7ebff"
         d="m 256,400.696 c -9.217,0 -16.696,-7.479 -16.696,-16.696 V 250.435 c 0,-9.217 7.479,-16.696 16.696,-16.696 9.217,0 16.696,7.479 16.696,16.696 V 384 c 0,9.217 -7.479,16.696 -16.696,16.696 z"
         id="path2073" />
      <path
         style="fill:#bddeff"
         d="M 272.696,384 V 250.435 c 0,-9.217 -7.479,-16.696 -16.696,-16.696 v 166.957 c 9.217,0 16.696,-7.479 16.696,-16.696 z"
         id="path2075" />
      <path
         style="fill:#d7ebff"
         d="m 189.218,367.305 c -9.217,0 -16.696,-7.479 -16.696,-16.696 V 250.435 c 0,-46.032 37.446,-83.478 83.478,-83.478 7.337,0 14.609,0.956 21.62,2.826 8.913,2.391 14.196,11.543 11.815,20.445 -2.391,8.924 -11.555,14.163 -20.445,11.815 -4.196,-1.13 -8.565,-1.695 -12.989,-1.695 -27.619,0 -50.087,22.468 -50.087,50.087 v 100.174 c -10e-4,9.217 -7.479,16.696 -16.696,16.696 z"
         id="path2077" />
      <path
         style="fill:#bddeff"
         d="m 268.989,202.043 c 8.891,2.347 18.055,-2.892 20.445,-11.815 2.381,-8.902 -2.902,-18.055 -11.815,-20.445 -7.011,-1.87 -14.283,-2.826 -21.62,-2.826 v 33.391 c 4.425,0 8.794,0.566 12.99,1.695 z"
         id="path2079" />
      <path
         style="fill:#d7ebff"
         d="m 389.565,333.913 c -9.217,0 -16.696,-7.479 -16.696,-16.696 v -66.783 c 0,-64.445 -52.424,-116.87 -116.87,-116.87 -20.892,0 -41.402,5.597 -59.326,16.196 -7.946,4.696 -18.163,2.076 -22.87,-5.869 -4.696,-7.935 -2.065,-18.174 5.869,-22.87 23.066,-13.641 49.457,-20.848 76.327,-20.848 82.858,0 150.261,67.403 150.261,150.261 v 66.783 c 0.001,9.218 -7.478,16.696 -16.695,16.696 z"
         id="path2081" />
      <path
         style="fill:#bddeff"
         d="m 372.87,250.435 v 66.783 c 0,9.217 7.479,16.696 16.696,16.696 9.217,0 16.696,-7.479 16.696,-16.696 v -66.783 c 0,-82.858 -67.403,-150.261 -150.261,-150.261 v 33.391 c 64.444,0 116.869,52.425 116.869,116.87 z"
         id="path2083" />
      <path
         style="fill:#d7ebff"
         d="m 122.435,333.913 c -9.217,0 -16.696,-7.479 -16.696,-16.696 v -66.783 c 0,-26.87 7.207,-53.261 20.847,-76.326 4.707,-7.935 14.924,-10.554 22.87,-5.869 7.935,4.696 10.565,14.935 5.869,22.87 -10.597,17.923 -16.195,38.433 -16.195,59.325 v 66.783 c 0.001,9.218 -7.478,16.696 -16.695,16.696 z"
         id="path2085" />
      <path
         style="fill:#bddeff"
         d="m 322.783,367.305 c -9.217,0 -16.696,-7.479 -16.696,-16.696 V 250.435 c 0,-4.424 -0.565,-8.793 -1.695,-12.989 -2.381,-8.902 2.902,-18.055 11.815,-20.445 8.881,-2.315 18.055,2.892 20.445,11.815 1.87,7.011 2.826,14.283 2.826,21.62 V 350.61 c 0,9.216 -7.478,16.695 -16.695,16.695 z"
         id="path2087" />
      <g
         id="g2089" />
      <g
         id="g2091" />
      <g
         id="g2093" />
      <g
         id="g2095" />
      <g
         id="g2097" />
      <g
         id="g2099" />
      <g
         id="g2101" />
      <g
         id="g2103" />
      <g
         id="g2105" />
      <g
         id="g2107" />
      <g
         id="g2109" />
      <g
         id="g2111" />
      <g
         id="g2113" />
      <g
         id="g2115" />
      <g
         id="g2117" />
    </g>
  </g>
</svg>
